<?xml version="1.0" standalone="no"?>
<!DOCTYPE svg PUBLIC "-//W3C//DTD SVG 1.1//EN" "http://www.w3.org/Graphics/SVG/1.1/DTD/svg11.dtd" >
<svg xmlns="http://www.w3.org/2000/svg">
<metadata></metadata>
<defs>
<font id="pushfont">
<font-face units-per-em="1400" ascent="1536" descent="-512" />
<missing-glyph horiz-adv-x="512" />
<glyph horiz-adv-x="0" />
<glyph unicode="&#xf000;" horiz-adv-x="1400" d="M 456.52173913 1065.2173913 L 456.52173913 -60.8695652174 L 715.217391304 114.300230435 L 973.913043478 -60.8695652174 L 973.913043478 1065.2173913 L 456.52173913 1065.2173913 Z M 456.52173913 1065.2173913" />

<glyph unicode="&#xf001;" horiz-adv-x="1400" d="M 146.640316261 913.043478261 L 1253.35968435 913.043478261 C 1284.01581 913.043478261 1308.69565217 887.906603043 1308.69565217 856.682768261 L 1308.69565217 147.665057826 C 1308.69565217 116.441223043 1284.01581 91.3043478261 1253.35968435 91.3043478261 L 949.011858261 91.3043478261 L 450.988141739 91.3043478261 L 395.652173913 91.3043478261 L 146.640316261 91.3043478261 C 115.984189696 91.3043478261 91.3043478261 116.441223043 91.3043478261 147.665057826 L 91.3043478261 856.682768261 C 91.3043478261 887.906603043 115.984189696 913.043478261 146.640316261 913.043478261 Z M 182.608695652 182.608695652 L 1217.39130435 182.608695652 L 1217.39130435 760.869565217 L 182.608695652 760.869565217 L 182.608695652 182.608695652 Z M 365.217391304 836.956521739 C 365.217391304 862.169523478 385.656563478 882.608695652 410.869565217 882.608695652 C 436.082566957 882.608695652 456.52173913 862.169523478 456.52173913 836.956521739 C 456.52173913 811.74352 436.082566957 791.304347826 410.869565217 791.304347826 C 385.656563478 791.304347826 365.217391304 811.74352 365.217391304 836.956521739 Z M 243.47826087 836.956521739 C 243.47826087 862.169523478 263.917433957 882.608695652 289.130434783 882.608695652 C 314.343436522 882.608695652 334.782608696 862.169523478 334.782608696 836.956521739 C 334.782608696 811.74352 314.343436522 791.304347826 289.130434783 791.304347826 C 263.917433957 791.304347826 243.47826087 811.74352 243.47826087 836.956521739 Z M 121.739130435 836.956521739 C 121.739130435 862.169523478 142.178303522 882.608695652 167.391304348 882.608695652 C 192.604305174 882.608695652 213.043478261 862.169523478 213.043478261 836.956521739 C 213.043478261 811.74352 192.604305174 791.304347826 167.391304348 791.304347826 C 142.178303522 791.304347826 121.739130435 811.74352 121.739130435 836.956521739 Z M 121.739130435 836.956521739" />

<glyph unicode="&#xf002;" horiz-adv-x="1400" d="M 192.753826087 958.695652174 C 170.27226087 958.695652174 152.173913043 940.596086957 152.173913043 918.113913043 L 152.173913043 147.101652174 C 152.173913043 124.620391304 170.65726087 102.378652174 192.753826087 106.52173913 L 355.072565217 106.52173913 L 304.347826087 -106.52173913 L 639.130434783 106.52173913 L 1207.24617391 106.52173913 C 1229.72773913 106.52173913 1247.82608696 124.620391304 1247.82608696 147.101652174 L 1247.82608696 918.113913043 C 1247.82608696 940.596086957 1229.72773913 958.695652174 1207.24617391 958.695652174 L 192.753826087 958.695652174 Z M 192.753826087 958.695652174" />

<glyph unicode="&#xf003;" horiz-adv-x="1400" d="M 35.250649913 459.123097391 L 475.400416522 18.9752956522 L 1364.7493513 908.322373913 L 1257.26637826 1015.80731304 L 475.400416522 233.939555652 L 142.733622652 566.60814913 L 35.250649913 459.123097391 Z M 35.250649913 459.123097391" />

<glyph unicode="&#xf004;" horiz-adv-x="1400" d="M 1034.87846609 1086.441678 C 986.690246957 1089.53594065 935.145281304 1071.88905296 892.910866522 1029.65463909 C 678.753061304 815.496834783 464.272203043 601.013450435 250.114396609 386.855645217 C 195.177353304 331.921124348 175.801615652 263.138138261 184.652821957 199.932901304 C 193.501504609 136.727667391 227.659539435 79.4610934783 273.775663 35.0914869565 C 319.891785652 -9.27811956522 378.834208261 -41.7981656522 441.769391304 -50.0890721739 C 504.707097391 -58.3774556522 572.384628261 -40.1450304348 624.74985087 12.2201891304 L 1213.9166413 601.384456522 L 1160.28443696 654.229215652 L 571.117646522 65.8523934783 C 534.940517391 29.6727413043 495.530313478 19.8977982609 452.023867826 25.6269786957 C 408.517425217 31.3586852174 362.360919565 55.1234295652 326.62042 89.5136595652 C 290.877395261 123.901366522 265.525137043 167.72581913 259.578903348 210.184854783 C 253.632669348 252.646416522 263.937624087 293.414465217 303.746600348 333.22344087 C 517.904404348 547.381246087 732.387788696 761.864630435 946.54307087 976.022435652 C 975.322743043 1004.80210691 1002.87076522 1012.47719057 1030.14873652 1010.72562591 C 1057.42418174 1008.98415678 1085.04539652 996.17300087 1105.86478739 975.232464652 C 1126.68165522 954.294452391 1140.41402391 926.135652826 1142.14287174 898.728965217 C 1143.88434087 871.32227913 1135.05837261 843.531962609 1106.65223565 815.125825652 L 589.259211739 297.732801739 C 579.761894783 288.235484783 572.296294348 286.1432 563.23308087 286.69088 C 554.167347391 287.24612913 543.420716087 292.023811739 535.627010435 299.310221304 C 527.833304783 306.596627826 523.575536522 315.992989565 523.007666087 323.758932609 C 522.427177391 331.527401739 523.638633913 339.371583478 535.627010435 351.365006087 L 946.54307087 761.493621304 L 892.910866522 815.125825652 L 481.994806087 404.997210435 C 457.064035217 380.066436522 445.121088696 347.887116957 447.291615217 318.239234783 C 449.462141739 288.591352609 464.486731739 262.683841304 484.362193913 244.100600435 C 504.235133043 225.517356522 529.698442609 212.716295217 558.498305217 210.974826087 C 587.30069087 209.233356957 619.061051304 220.267709565 642.891416087 244.100600435 L 1160.28443696 761.493621304 C 1202.26394217 803.473123478 1220.10769087 855.32600087 1217.07147739 903.461217826 C 1214.03526391 951.596437217 1192.06246478 995.319933391 1159.49699174 1028.07722135 C 1126.92899261 1060.8345093 1083.06920826 1083.34741535 1034.87846609 1086.441678 L 1034.87846609 1086.441678 Z M 1034.87846609 1086.441678" />

<glyph unicode="&#xf005;" horiz-adv-x="1400" d="M 152.173913043 948.697826087 L 604.107304348 496.765652174 L 152.173913043 44.8334782609 L 268.691347826 -71.6860869565 L 720.62473913 380.249130435 L 1172.55813043 -71.6860869565 L 1289.07556522 44.8334782609 L 837.142173913 496.765652174 L 1289.07556522 948.697826087 L 1172.55813043 1065.2173913 L 720.62473913 613.282173913 L 268.691347826 1065.2173913 L 152.173913043 948.697826087 Z M 152.173913043 948.697826087" />

<glyph unicode="&#xf006;" horiz-adv-x="1400" d="M 146.640316261 1004.34782609 C 115.984189696 1004.34782609 91.3043478261 979.210949957 91.3043478261 947.987117609 L 91.3043478261 299.83897087 C 91.3043478261 268.615136087 115.984189696 243.47826087 146.640316261 243.47826087 L 395.652173913 243.47826087 L 450.988141739 243.47826087 L 949.011858261 243.47826087 L 1253.35968435 243.47826087 C 1284.01581 243.47826087 1308.69565217 268.615136087 1308.69565217 299.83897087 L 1308.69565217 947.987117609 C 1308.69565217 979.210949957 1284.01581 1004.34782609 1253.35968435 1004.34782609 L 146.640316261 1004.34782609 L 146.640316261 1004.34782609 Z M 182.608695652 913.043478261 L 1217.39130435 913.043478261 L 1217.39130435 334.782608696 L 182.608695652 334.782608696 L 182.608695652 913.043478261 L 182.608695652 913.043478261 Z M 440.21739087 182.608695652 L 440.21739087 130.434783043 L 304.347826087 0.0 L 1065.2173913 0.0 L 929.347826522 130.434783043 L 929.347826522 182.608695652 L 440.21739087 182.608695652 L 440.21739087 182.608695652 Z M 440.21739087 182.608695652" />

<glyph unicode="&#xf007;" horiz-adv-x="1400" d="M 699.998916522 943.47826087 C 540.417923043 943.47826087 411.20716 811.545718261 411.20716 648.601224783 C 411.20716 485.656734348 540.417923043 353.724191739 699.998916522 353.724191739 C 859.579913043 353.724191739 988.790676087 485.656734348 988.790676087 648.601224783 C 988.790676087 811.545718261 859.579913043 943.47826087 699.998916522 943.47826087 L 699.998916522 943.47826087 Z M 305.023773478 799.147345652 C 218.018650043 799.147345652 148.115841087 727.081444783 148.115841087 638.242548696 C 148.115841087 549.404316087 218.018650043 477.338853478 305.023773478 477.338853478 C 340.099297391 477.338853478 372.168683478 489.302988696 398.356943478 509.103255652 C 392.707173478 521.53367 387.616648696 533.897788261 383.477740435 547.08618087 C 363.64804 527.632861304 331.73231913 513.248938696 305.023773478 513.248938696 C 262.81532413 513.248938696 207.632643522 550.308143913 207.632643522 584.37742087 L 374.00916 584.37742087 C 370.029757391 605.066051739 367.922212609 626.696076087 367.922212609 648.601224783 C 367.922212609 692.298606087 376.755156522 733.749005652 391.593668261 772.214784783 C 366.690325217 789.046117391 337.112205652 799.147345652 305.023773478 799.147345652 L 305.023773478 799.147345652 Z M 1094.97406261 799.147345652 C 1062.88563043 799.147345652 1033.30751087 789.046117391 1008.40416783 772.214784783 C 1023.24267957 733.749005652 1032.07562348 692.298606087 1032.07562348 648.601224783 C 1032.07562348 626.696076087 1029.96764652 605.066051739 1025.98867609 584.37742087 L 1192.36519348 584.37742087 C 1192.36519348 550.308143913 1137.18251043 513.248938696 1094.97406261 513.248938696 C 1068.26551696 513.248938696 1036.34979304 527.632861304 1016.52009565 547.08618087 C 1012.38118739 533.897788261 1007.29066261 521.53367 1001.64089261 509.103255652 C 1027.82915261 489.302988696 1059.89853565 477.338853478 1094.97406261 477.338853478 C 1181.97918696 477.338853478 1251.88199348 549.404316087 1251.88199348 638.242548696 C 1251.88199348 727.081444783 1181.97918696 799.147345652 1094.97406261 799.147345652 L 1094.97406261 799.147345652 Z M 521.448510435 550.53796913 L 878.549325652 550.53796913 C 878.549325652 484.578326522 777.415778696 419.330258261 699.998916522 419.330258261 C 622.582057391 419.330258261 521.448510435 488.050003913 521.448510435 550.53796913 L 521.448510435 550.53796913 Z M 206.956316 469.741385217 C 145.546879435 443.532548261 100.830066217 393.41974913 91.3043478261 334.387991304 L 421.352071304 334.387991304 C 446.048080435 351.558537826 472.683256957 367.012026957 501.15869087 379.274493043 C 472.378312609 401.521065217 447.343381739 427.758629565 426.762687826 458.002656087 C 426.487828261 458.22364 426.36013913 458.533018696 426.087443478 458.687709565 C 418.987629565 462.680911304 411.444794783 466.459754783 403.768643478 469.736966087 C 374.935673913 452.159807826 341.046156957 441.422139565 305.024856957 441.42434913 C 269.003773043 441.42434913 235.790150826 452.159807826 206.957398261 469.736966087 L 206.956316 469.741385217 Z M 996.231356522 469.736966087 C 988.555205217 466.461967391 981.012370435 462.680911304 973.912556522 458.687709565 C 973.739416087 458.422528261 973.419108261 458.267837391 973.237312174 458.002656087 C 952.656618261 427.758629565 927.621687391 401.521065217 898.84130913 379.274493043 C 927.316743043 367.012026957 953.951919565 351.558537826 978.647928696 334.387991304 L 1308.69565217 334.387991304 C 1299.16993348 393.41974913 1254.45312087 443.532548261 1193.04368522 469.741385217 C 1164.21093174 452.164226957 1130.99731043 441.426561739 1094.97622652 441.428771304 C 1058.95492652 441.428771304 1025.06540957 452.164226957 996.23244 469.741385217 L 996.231356522 469.736966087 Z M 519.421693913 339.223146957 C 406.787335652 291.15225087 325.20299913 199.578223478 307.731248696 91.3043478261 L 1092.27091522 91.3043478261 C 1074.79916478 199.578223478 993.214828261 291.15225087 880.58047 339.223146957 C 827.696437826 306.981417826 766.06971 288.120334783 700.001083478 288.118125217 C 633.932453913 288.118125217 572.305726087 306.981417826 519.421693913 339.223146957 L 519.421693913 339.223146957 Z M 519.421693913 339.223146957" />

<glyph unicode="&#xf008;" horiz-adv-x="1400" d="M 699.998916522 943.47826087 C 540.417923043 943.47826087 411.20716 811.545718261 411.20716 648.601224783 C 411.20716 485.656734348 540.417923043 353.724191739 699.998916522 353.724191739 C 859.579913043 353.724191739 988.790676087 485.656734348 988.790676087 648.601224783 C 988.790676087 811.545718261 859.579913043 943.47826087 699.998916522 943.47826087 L 699.998916522 943.47826087 Z M 521.448510435 550.53796913 L 878.549325652 550.53796913 C 878.549325652 484.578326522 777.415778696 419.330258261 699.998916522 419.330258261 C 622.582057391 419.330258261 521.448510435 488.050003913 521.448510435 550.53796913 L 521.448510435 550.53796913 Z M 519.421693913 339.223146957 C 406.787335652 291.15225087 325.20299913 199.578223478 307.731248696 91.3043478261 L 1092.27091522 91.3043478261 C 1074.79916478 199.578223478 993.214828261 291.15225087 880.58047 339.223146957 C 827.696437826 306.981417826 766.06971 288.120334783 700.001083478 288.118125217 C 633.932453913 288.118125217 572.305726087 306.981417826 519.421693913 339.223146957 L 519.421693913 339.223146957 Z M 519.421693913 339.223146957" />

<glyph unicode="&#xf009;" horiz-adv-x="1400" d="M 606.317173913 1126.08695652 L 606.317173913 1053.80434783 C 572.507173913 1048.07652174 539.741086957 1039.77391304 508.353695652 1028.12347826 L 472.215434783 1089.94565217 C 463.781956522 1104.54826087 444.964130435 1109.78913043 430.367608696 1101.35869565 L 325.745 1040.48913043 C 311.148478261 1032.05869565 305.904565217 1013.24391304 314.331956522 998.641304348 L 350.476304348 936.819130435 C 324.302391304 915.119130435 299.893695652 891.656956522 278.193695652 865.489130435 L 216.371521739 900.680869565 C 201.768913043 909.105217391 182.954130435 903.864347826 174.523695652 889.267826087 L 113.654130435 784.645217391 C 105.223695652 770.048695652 110.464565217 751.230869565 125.067173913 742.797391304 L 186.889347826 706.659130435 C 175.165869565 675.083043478 166.93326087 642.72173913 161.208478261 608.695652174 L 88.9258695652 608.695652174 C 72.065 608.695652174 58.4910869565 595.12173913 58.4910869565 578.260869565 L 58.4910869565 456.52173913 C 58.4910869565 439.660869565 72.065 426.086956522 88.9258695652 426.086956522 L 161.208478261 426.086956522 C 166.936304348 392.276956522 175.238913043 359.513913043 186.889347826 328.123478261 L 125.067173913 291.985217391 C 110.464565217 283.548695652 105.223695652 264.733913043 113.654130435 250.137391304 L 174.523695652 145.514782609 C 182.954130435 130.91826087 201.768913043 125.671304348 216.371521739 134.10173913 L 278.193695652 170.246086957 C 299.89673913 144.069130435 324.299347826 119.669565217 350.476304348 97.9634782609 L 314.331956522 36.1413043478 C 305.904565217 21.5386956522 311.148478261 2.72391304348 325.745 -5.70652173913 L 430.367608696 -66.5760869565 C 444.964130435 -75.0065217391 463.778913043 -69.7656521739 472.215434783 -55.1630434783 L 508.353695652 6.65913043478 C 539.744130435 -4.99434782609 572.507173913 -13.2939130435 606.317173913 -19.0217391304 L 606.317173913 -91.3043478261 C 606.317173913 -108.165217391 619.891086957 -121.739130435 636.751956522 -121.739130435 L 758.491086957 -121.739130435 C 775.351956522 -121.739130435 788.925869565 -108.165217391 788.925869565 -91.3043478261 L 788.925869565 -19.0217391304 C 822.735869565 -13.2939130435 855.501956522 -4.99130434783 886.889347826 6.65913043478 L 923.027608696 -55.1630434783 C 931.461086957 -69.7656521739 950.278913043 -75.0065217391 964.875434783 -66.5760869565 L 1069.49804348 -5.70652173913 C 1084.09456522 2.72391304348 1089.33847826 21.5386956522 1080.91108696 36.1413043478 L 1044.76673913 97.9634782609 C 1070.94369565 119.666521739 1095.34630435 144.069130435 1117.04934783 170.246086957 L 1178.87152174 134.10173913 C 1193.47413043 125.671304348 1212.28891304 130.91826087 1220.71934783 145.514782609 L 1281.58891304 250.137391304 C 1290.01934783 264.733913043 1284.77847826 283.55173913 1270.17586957 291.985217391 L 1208.35369565 328.123478261 C 1220.00717391 359.513913043 1228.30673913 392.276956522 1234.03456522 426.086956522 L 1306.31717391 426.086956522 C 1323.17804348 426.086956522 1336.75195652 439.660869565 1336.75195652 456.52173913 L 1336.75195652 578.260869565 C 1336.75195652 595.12173913 1323.17804348 608.695652174 1306.31717391 608.695652174 L 1234.03456522 608.695652174 C 1228.30978261 642.72173913 1220.07717391 675.08 1208.35369565 706.659130435 L 1270.17586957 742.797391304 C 1284.77847826 751.230869565 1290.01934783 770.048695652 1281.58891304 784.645217391 L 1220.71934783 889.267826087 C 1212.28891304 903.864347826 1193.47413043 909.111304348 1178.87152174 900.680869565 L 1117.04934783 865.489130435 C 1095.34934783 891.656956522 1070.94065217 915.116086957 1044.76673913 936.819130435 L 1080.91108696 998.641304348 C 1089.33847826 1013.24391304 1084.09456522 1032.05869565 1069.49804348 1040.48913043 L 964.875434783 1101.35869565 C 950.278913043 1109.78913043 931.464130435 1104.54826087 923.027608696 1089.94565217 L 886.889347826 1028.12347826 C 855.498913043 1039.77695652 822.735869565 1048.07652174 788.925869565 1053.80434783 L 788.925869565 1126.08695652 C 788.925869565 1142.94782609 775.351956522 1156.52173913 758.491086957 1156.52173913 L 636.751956522 1156.52173913 C 619.891086957 1156.52173913 606.317173913 1142.94782609 606.317173913 1126.08695652 Z M 698.097826087 730.434782609 C 815.895652174 730.434782609 911.141304348 635.189130435 911.141304348 517.391304348 C 911.141304348 399.593478261 815.895652174 304.347826087 698.097826087 304.347826087 C 580.3 304.347826087 484.104782609 399.593478261 484.10173913 517.391304348 C 484.10173913 635.189130435 580.3 730.434782609 698.097826087 730.434782609 L 698.097826087 730.434782609 Z M 698.097826087 730.434782609" />

<glyph unicode="&#xf00a;" horiz-adv-x="1400" d="M 91.3043478261 -121.739130435 L 1308.69565217 -121.739130435 L 1308.69565217 1095.65217391 L 91.3043478261 1095.65217391 L 91.3043478261 -121.739130435 Z M 182.608695652 1004.34782609 L 1217.39130435 1004.34782609 L 1217.39130435 -30.4347826087 L 182.608695652 -30.4347826087 L 182.608695652 1004.34782609 L 182.608695652 1004.34782609 Z M 464.822135217 517.391304348 L 243.47826087 356.265986087 L 243.47826087 60.8695652174 L 1156.52173913 60.8695652174 L 1156.52173913 221.994883478 L 907.50988087 409.974423478 L 713.833993478 302.557545652 L 464.822135217 517.391304348 L 464.822135217 517.391304348 Z M 464.822135217 517.391304348" />

<glyph unicode="&#xf00b;" horiz-adv-x="1400" d="M 308.31758087 882.608695652 C 278.261247783 882.608695652 254.064272304 858.369564348 254.064272304 828.26086913 L 254.064272304 257.608695217 C 254.064272304 254.99999913 254.55255213 252.475543478 254.905198435 249.967391739 L 91.3043478261 203.260868696 L 91.3043478261 121.739130435 L 1339.13043478 121.739130435 L 1339.13043478 203.260868696 L 1175.52415826 249.967391739 C 1175.87680609 252.46739 1176.36508652 254.997281304 1176.36508652 257.608695217 L 1176.36508652 828.26086913 C 1176.36508652 858.369564348 1152.16811043 882.608695652 1122.11177826 882.608695652 L 308.312154348 882.608695652 L 308.31758087 882.608695652 Z M 334.782608696 791.304347826 L 1095.65217391 791.304347826 L 1095.65217391 273.913043478 L 334.782608696 273.913043478 L 334.782608696 791.304347826 L 334.782608696 791.304347826 Z M 334.782608696 791.304347826" />

<glyph unicode="&#xf00c;" horiz-adv-x="1400" d="M 882.936338261 1066.23371217 C 845.539002609 1062.29270396 806.591106087 1043.74809791 775.209646522 1012.36663896 L 650.772183478 888.856034348 C 588.01175087 826.100571739 572.883846957 728.077307391 623.838648696 677.120022174 L 636.839502174 664.119165652 L 862.508198696 890.71472 C 877.337917826 905.54940913 899.428438696 905.797896957 913.582274348 891.634121304 L 1074.24421087 730.974668261 C 1088.39804652 716.82331913 1088.14210522 694.725344783 1073.32480957 679.89810913 L 846.731741739 454.23189913 L 859.732595217 441.231042609 C 910.712246957 390.29115087 1008.70817478 405.399177826 1071.46861043 468.162093913 L 1194.97921261 592.602040435 C 1257.74213174 655.364959565 1268.22332609 747.812166957 1217.26603783 798.769455217 L 981.389484783 1034.64600857 C 955.907113913 1060.12589474 920.346097391 1070.162296 882.946278261 1066.22377248 L 882.936338261 1066.23371217 Z M 804.938664783 723.544898696 C 789.74615087 723.544898696 774.789701304 718.468303913 763.148074348 706.829160435 L 510.55081 454.23189913 C 487.267553043 430.946155652 487.267553043 393.933972174 510.55081 370.650715217 L 553.270744783 327.930780435 C 576.554001739 304.647523478 613.566182174 304.647523478 636.849442174 327.930780435 L 889.446703478 580.530528261 C 912.732446957 603.813788261 912.732446957 640.825968696 889.446703478 664.109225652 L 846.729255217 706.829160435 C 835.087625217 718.468303913 820.131175652 723.544898696 804.938664783 723.544898696 L 804.938664783 723.544898696 Z M 467.833361739 623.247976522 C 421.174904348 625.745275217 367.757593913 605.824048261 328.533876087 566.597846957 L 205.020786783 442.160386957 C 142.25786887 379.399951304 131.77667513 286.952743913 182.733962174 235.992972174 L 418.613001739 0.113932608695 C 469.572773478 -50.8458391304 562.01998087 -40.3596747826 624.780413478 22.4032413043 L 749.217876522 145.913846522 C 811.975825652 208.66930913 827.086336087 306.672693478 776.151411304 357.649861739 L 763.148074348 370.650715217 L 537.481861304 144.05516087 C 522.652142174 129.227925217 500.554167826 128.971983913 486.405302174 143.135759565 L 325.74584913 303.795212609 C 311.592013478 317.949048261 311.842984783 340.042052609 326.665250435 354.871771739 L 553.258321304 580.537984783 L 540.257464783 593.538838261 C 521.148791739 612.649994783 495.815514783 621.752085652 467.820938261 623.257916522 L 467.833361739 623.247976522 Z M 467.833361739 623.247976522" />

<glyph unicode="&#xf00d;" horiz-adv-x="1400" d="M 213.043478261 821.739130435 L 395.652173913 821.739130435 L 395.652173913 1004.34782609 L 213.043478261 1004.34782609 L 213.043478261 821.739130435 Z M 578.260869565 1004.34782609 L 578.260869565 821.739130435 L 1186.95652174 821.739130435 L 1186.95652174 1004.34782609 L 578.260869565 1004.34782609 L 578.260869565 1004.34782609 Z M 213.043478261 608.695652174 L 213.043478261 426.086956522 L 395.652173913 426.086956522 L 395.652173913 608.695652174 L 213.043478261 608.695652174 L 213.043478261 608.695652174 Z M 578.260869565 608.695652174 L 578.260869565 426.086956522 L 1065.2173913 426.086956522 L 1065.2173913 608.695652174 L 578.260869565 608.695652174 L 578.260869565 608.695652174 Z M 213.043478261 213.043478261 L 213.043478261 30.4347826087 L 395.652173913 30.4347826087 L 395.652173913 213.043478261 L 213.043478261 213.043478261 L 213.043478261 213.043478261 Z M 578.260869565 30.4347826087 L 882.608695652 30.4347826087 L 882.608695652 213.043478261 L 578.260869565 213.043478261 L 578.260869565 30.4347826087 Z M 578.260869565 30.4347826087" />

<glyph unicode="&#xf00e;" horiz-adv-x="1400" d="M 515.901123043 1099.99732561 L 118.152804304 1018.93146509 L 118.152804304 15.851143913 L 515.901123043 -65.2147178261 L 879.555621304 15.851143913 L 1281.84719478 -32.6361213043 L 1281.84719478 1067.41873152 L 879.555621304 1018.93146509 L 515.901123043 1099.99732561 Z M 483.322529565 1043.1750983 L 483.322529565 24.1836791304 L 168.155297739 89.3384434783 L 168.155297739 977.261508391 L 483.322529565 1043.1750983 Z M 1234.87515565 992.413779304 L 1234.87515565 40.0923508696 L 919.707925652 76.4578013043 L 919.707925652 956.048329478 L 1234.87515565 992.413779304 Z M 1234.87515565 992.413779304" />

<glyph unicode="&#xf00f;" horiz-adv-x="1400" d="M 121.739130435 1004.34782609 L 121.739130435 0.0 L 1308.69565217 0.0 L 1308.69565217 1004.34782609 L 121.739130435 1004.34782609 L 121.739130435 1004.34782609 Z M 182.608695652 913.043478261 L 334.782608696 913.043478261 L 334.782608696 821.739130435 L 182.608695652 821.739130435 L 182.608695652 913.043478261 L 182.608695652 913.043478261 Z M 1095.65217391 913.043478261 L 1247.82608696 913.043478261 L 1247.82608696 821.739130435 L 1095.65217391 821.739130435 L 1095.65217391 913.043478261 L 1095.65217391 913.043478261 Z M 182.608695652 730.434782609 L 334.782608696 730.434782609 L 334.782608696 639.130434783 L 182.608695652 639.130434783 L 182.608695652 730.434782609 L 182.608695652 730.434782609 Z M 1095.65217391 730.434782609 L 1247.82608696 730.434782609 L 1247.82608696 639.130434783 L 1095.65217391 639.130434783 L 1095.65217391 730.434782609 L 1095.65217391 730.434782609 Z M 182.608695652 547.826086957 L 334.782608696 547.826086957 L 334.782608696 456.52173913 L 182.608695652 456.52173913 L 182.608695652 547.826086957 L 182.608695652 547.826086957 Z M 1095.65217391 547.826086957 L 1247.82608696 547.826086957 L 1247.82608696 456.52173913 L 1095.65217391 456.52173913 L 1095.65217391 547.826086957 L 1095.65217391 547.826086957 Z M 182.608695652 365.217391304 L 334.782608696 365.217391304 L 334.782608696 273.913043478 L 182.608695652 273.913043478 L 182.608695652 365.217391304 L 182.608695652 365.217391304 Z M 1095.65217391 365.217391304 L 1247.82608696 365.217391304 L 1247.82608696 273.913043478 L 1095.65217391 273.913043478 L 1095.65217391 365.217391304 L 1095.65217391 365.217391304 Z M 182.608695652 182.608695652 L 334.782608696 182.608695652 L 334.782608696 91.3043478261 L 182.608695652 91.3043478261 L 182.608695652 182.608695652 L 182.608695652 182.608695652 Z M 1095.65217391 182.608695652 L 1247.82608696 182.608695652 L 1247.82608696 91.3043478261 L 1095.65217391 91.3043478261 L 1095.65217391 182.608695652 L 1095.65217391 182.608695652 Z M 1095.65217391 182.608695652" />

<glyph unicode="&#xf010;" horiz-adv-x="1400" d="M 529.340894783 967.737198217 L 529.340894783 301.614922609 C 500.361877826 308.127966087 447.958051739 322.570916957 413.73185913 317.492353043 C 290.857302826 299.261869565 191.168478261 206.000522609 191.168478261 109.877767391 C 191.168478261 13.7550091304 290.857302826 -49.1356234783 413.73185913 -30.9026230435 C 529.781307391 -13.6838282609 618.978293043 69.8557695652 629.22601913 160.079539565 L 630.006175217 160.331204783 L 630.006175217 176.060153043 L 630.006175217 756.458396522 L 1108.16121043 826.473613913 L 1108.16121043 387.635916957 C 1079.17715957 394.146443478 1020.48930261 407.658242174 986.260593043 402.579678261 C 863.381004348 384.34668087 763.697212174 291.08785087 763.697212174 194.965092609 C 763.697212174 98.8423343478 863.388555217 35.9517017391 986.260593043 54.1821852174 C 1102.30752435 71.40098 1197.79609174 154.940577826 1208.04129783 245.166867826 L 1208.82145391 245.41853 L 1208.83152174 1068.83030343 L 529.340894783 967.737198217 Z M 529.340894783 967.737198217" />

<glyph unicode="&#xf011;" horiz-adv-x="1400" d="M 585.874130435 1004.34782609 C 505.165652174 1004.34782609 439.316956522 944.938369565 428.232608696 867.391304348 L 426.086956522 867.391304348 L 426.086956522 844.565217391 L 426.086956522 456.52173913 L 426.086956522 159.782608696 C 426.086956522 71.2630434783 497.35 0.0 585.869565217 0.0 L 814.130434783 0.0 C 902.65 0.0 973.913043478 71.2630434783 973.913043478 159.782608696 L 973.913043478 547.826086957 L 973.913043478 844.565217391 L 973.913043478 867.391304348 L 971.767391304 867.391304348 C 960.685326087 944.938369565 894.834347826 1004.34782609 814.125869565 1004.34782609 L 585.865 1004.34782609 L 585.874130435 1004.34782609 Z M 486.956521739 852.173913043 L 913.043478261 852.173913043 L 913.043478261 152.173913043 L 486.956521739 152.173913043 L 486.956521739 852.173913043 Z M 486.956521739 852.173913043" />

<glyph unicode="&#xf012;" horiz-adv-x="1400" d="M 506.324109565 973.913043478 L 506.324109565 890.664962174 L 406.027668261 890.664962174 L 91.3043478261 770.995844348 L 91.3043478261 30.4347826087 L 1308.69565217 30.4347826087 L 1308.69565217 890.664962174 L 893.675890435 890.664962174 L 893.675890435 973.913043478 L 506.324109565 973.913043478 Z M 578.260869565 943.47826087 L 578.260869565 852.173913043 L 760.869565217 916.535994348 L 760.869565217 943.47826087 L 578.260869565 943.47826087 Z M 715.217391304 791.304347826 C 891.884693913 791.304347826 1034.7826087 648.402321304 1034.7826087 471.7405 C 1034.7826087 295.067713043 891.884693913 152.173913043 715.217391304 152.173913043 C 538.550088696 152.173913043 395.652173913 295.073197391 395.652173913 471.7405 C 395.652173913 648.402321304 538.550088696 791.304347826 715.217391304 791.304347826 L 715.217391304 791.304347826 Z M 715.217391304 700.0 C 589.172691739 700.0 486.956521739 597.785464348 486.956521739 471.739130435 C 486.956521739 345.698247391 589.172691739 243.483711739 715.217391304 243.47826087 C 841.26209087 243.47826087 943.47826087 345.698247391 943.47826087 471.739130435 C 943.47826087 597.788188261 841.26209087 700.00545087 715.217391304 700.0 L 715.217391304 700.0 Z M 715.217391304 700.0" />

<glyph unicode="&#xf013;" horiz-adv-x="1400" d="M 722.847120435 1056.08683022 C 541.966685217 1056.08683022 395.652173913 909.765308261 395.652173913 728.891885217 C 395.652173913 612.974167826 434.560164348 544.898623043 483.201575652 482.214438696 C 531.845327391 419.525579565 591.346575217 363.922373043 625.711523043 278.997374783 C 663.890381304 184.63808087 680.57625087 91.1598191304 693.450544348 22.093406087 C 699.893533043 -12.4351256522 705.943913043 -41.2357795652 711.984946522 -59.7047469565 C 714.973913043 -68.9450726087 717.918478261 -75.761973913 720.288151739 -78.8724634783 C 722.655487826 -82.0039865217 722.629782609 -81.4080613043 722.826086957 -81.4080613043 C 722.826086957 -81.4080613043 723.106522174 -82.1091478261 725.364022174 -78.8724634783 C 727.72902087 -75.7456152174 730.64788087 -68.9427352174 733.667227391 -59.7047469565 C 739.705923478 -41.2357795652 745.75864087 -12.4351256522 752.201629565 22.093406087 C 765.075923043 91.1574817391 781.761792609 184.63808087 819.938316522 278.997374783 C 854.305598696 363.922373043 913.806846522 419.523242174 962.450598261 482.214438696 C 1011.08967522 544.898623043 1050.0 612.974167826 1050.0 728.891885217 C 1050.0 909.765308261 903.685488696 1056.08683022 722.805053478 1056.08683022 L 722.847120435 1056.08683022 Z M 722.805053478 840.084276957 C 783.888423043 840.084276957 833.359456087 790.601556957 833.359456087 729.527536957 C 833.359456087 668.448842174 783.888423043 618.973134348 722.805053478 618.975471739 C 661.726358696 618.975471739 612.252988261 668.448842174 612.252988261 729.527536957 C 612.252988261 790.601556957 661.726358696 840.084276957 722.805053478 840.084276957 L 722.805053478 840.084276957 Z M 722.805053478 840.084276957" />

<glyph unicode="&#xf014;" horiz-adv-x="1400" d="M 647.069944348 1126.08695652 L 647.069944348 570.32136 L 91.3043478261 570.32136 L 91.3043478261 464.461248696 L 647.069944348 464.461248696 L 647.069944348 -91.3043478261 L 752.930055652 -91.3043478261 L 752.930055652 464.461248696 L 1308.69565217 464.461248696 L 1308.69565217 570.32136 L 752.930055652 570.32136 L 752.930055652 1126.08695652 L 647.069944348 1126.08695652 Z M 647.069944348 1126.08695652" />

<glyph unicode="&#xf015;" horiz-adv-x="1400" d="M 852.173913043 91.3043478261 C 838.036302174 91.3043478261 824.059508696 91.9682978261 810.275236522 93.265626087 C 804.166841739 91.9803043478 797.833229565 91.3043478261 791.341307826 91.3043478261 L 578.223909565 91.3043478261 C 527.808043913 91.3043478261 486.956521739 132.082327391 486.956521739 182.38451 L 486.956521739 821.963316087 C 486.956521739 872.293306957 527.818324783 913.043478261 578.223909565 913.043478261 L 791.341307826 913.043478261 C 797.832821739 913.043478261 804.165770435 912.367421304 810.273361739 911.082023478 C 824.058242609 912.379467391 838.03566 913.043478261 852.173913043 913.043478261 C 1087.49525348 913.043478261 1278.26086957 729.090919565 1278.26086957 502.173913043 C 1278.26086957 275.256906522 1087.49525348 91.3043478261 852.173913043 91.3043478261 Z M 852.173913043 91.3043478261 M 243.382990261 913.043478261 C 193.009607913 913.043478261 152.173913043 872.293306957 152.173913043 821.963316087 L 152.173913043 182.38451 C 152.173913043 132.082327391 193.181463087 91.3043478261 243.382990261 91.3043478261 L 334.877878696 91.3043478261 C 385.251260435 91.3043478261 426.086956522 132.05451913 426.086956522 182.38451 L 426.086956522 821.963316087 C 426.086956522 872.265498696 385.079407391 913.043478261 334.877878696 913.043478261 L 243.382990261 913.043478261 Z M 243.382990261 913.043478261" />

<glyph unicode="&#xf016;" horiz-adv-x="1400" d="M 533.958971304 1088.27772991 C 309.236927391 1088.27772991 127.063543478 906.104083043 127.063543478 681.382303913 C 127.063543478 456.660521739 309.236927391 274.486876087 533.958971304 274.486876087 C 628.533542609 274.486876087 715.892154783 306.497733043 784.987197826 360.62270087 L 878.507517391 267.102381304 C 857.940135652 246.534473043 857.940135652 213.01679 878.507517391 192.451508261 L 1109.02690348 -38.0691895652 C 1129.59428522 -58.6370978261 1162.29135217 -58.6370978261 1182.85873391 -38.0691895652 L 1257.5109187 36.5843069565 C 1278.07830348 57.1495886957 1278.07830348 89.8482321739 1257.5109187 110.416137391 L 1026.99153565 340.934211739 C 1006.42415087 361.50212 972.906732609 361.50212 952.339347826 340.934211739 L 857.998676957 435.276197391 C 909.958170435 503.605753913 940.85439913 588.914659565 940.85439913 681.382303913 C 940.85439913 906.104083043 758.681015217 1088.27772991 533.958971304 1088.27772991 L 533.958971304 1088.27772991 Z M 533.958971304 1002.96094683 C 711.357238261 1002.96094683 855.537613913 858.780832609 855.537613913 681.382303913 C 855.537613913 503.983772174 711.357238261 359.803658261 533.958971304 359.803658261 C 356.560701304 359.803658261 212.380326565 503.983772174 212.380326565 681.382303913 C 212.380326565 858.780832609 356.560701304 1002.96094683 533.958971304 1002.96094683 L 533.958971304 1002.96094683 Z M 533.958971304 1002.96094683" />

<glyph unicode="&#xf017;" horiz-adv-x="1400" d="M 608.932748261 999.421168565 L 102.801391304 517.391304348 L 608.932748261 35.3614404348 L 608.932748261 372.030378696 C 1190.50129739 372.030378696 1219.74074783 148.043152174 1297.1986087 42.7075752174 C 1297.1986087 433.151764348 1136.03481478 684.595413478 608.932748261 684.595413478 L 608.932748261 999.421168565 Z M 608.932748261 999.421168565" />

<glyph unicode="&#xf018;" horiz-adv-x="1400" d="M 791.067251739 999.421168565 L 1297.1986087 517.391304348 L 791.067251739 35.3614404348 L 791.067251739 372.030378696 C 209.498701696 372.030378696 180.259252174 148.043152174 102.801391304 42.7075752174 C 102.801391304 433.151764348 263.965184304 684.595413478 791.067251739 684.595413478 L 791.067251739 999.421168565 Z M 791.067251739 999.421168565" />

<glyph unicode="&#xf019;" horiz-adv-x="1400" d="M 700.0 1041.91591091 C 410.246531739 1041.91591091 175.474782609 807.14465087 175.474782609 517.391916087 C 175.477225913 227.638447826 410.246531739 -7.13086043478 700.0 -7.13330130435 C 989.753468261 -7.13330130435 1224.52521739 227.638447826 1224.52521739 517.391916087 C 1224.52521739 807.14465087 989.753468261 1041.91591091 700.0 1041.91591091 L 700.0 1041.91591091 Z M 700.0 945.715003435 C 936.631022174 945.715003435 1128.32186783 754.023425217 1128.32186783 517.391916087 C 1128.32186783 280.760893913 936.631022174 89.0700482609 700.0 89.0700482609 C 463.368977826 89.0700482609 271.678133391 280.760893913 271.678133391 517.391916087 C 271.678133391 754.023425217 463.368977826 945.715003435 700.0 945.715003435 L 700.0 945.715003435 Z M 644.265774783 859.439587391 L 626.704071304 517.391916087 L 890.110096522 253.221168261 L 937.449492609 292.158409565 L 722.140257391 548.694163043 L 706.870271739 859.439587391 L 644.265774783 859.439587391 L 644.265774783 859.439587391 Z M 644.265774783 859.439587391" />



</font>
</defs>
</svg>
